<svg class="w-8 h-8 mt-4" fill="none" stroke="currentColor" stroke-width="0.1" viewBox="0 0 24 24" xmlns="http://www.w3.org/2000/svg" aria-hidden="true">
              <path d="M13 14C12.4477 14 12 14.4477 12 15C12 15.5523 12.4477 16 13 16H17C17.5523 16 18 15.5523 18 15C18 14.4477 17.5523 14 17 14H13Z" fill="currentColor"></path>
              <path fill-rule="evenodd" clip-rule="evenodd" d="M2 6V18C2 19.1046 2.89543 20 4 20H20C21.1046 20 22 19.1046 22 18V6C22 4.89543 21.1046 4 20 4H4C2.89543 4 2 4.89543 2 6ZM20 6H4V8H20V6ZM4 18H20V10H4V18Z" fill="currentColor"></path>
            </svg>