<svg class="w-8 h-8 mt-3" fill="none" stroke="currentColor" stroke-width="0.2" viewBox="0 0 24 24" xmlns="http://www.w3.org/2000/svg" aria-hidden="true" >
              <path fill-rule="evenodd" clip-rule="evenodd" d="M9 7C9 5.34315 10.3431 4 12 4C13.6569 4 15 5.34315 15 7C15 8.65685 13.6569 10 12 10C10.3431 10 9 8.65685 9 7ZM12 8C11.4477 8 11 7.55228 11 7C11 6.44772 11.4477 6 12 6C12.5523 6 13 6.44772 13 7C13 7.55228 12.5523 8 12 8Z" fill="currentColor"></path>
              <path fill-rule="evenodd" clip-rule="evenodd" d="M19 13H20.2629C21.8603 13 22.8131 11.2197 21.927 9.8906L17.1874 2.7812C16.4456 1.6684 15.1966 1 13.8592 1H10.1407C8.80329 1 7.55437 1.6684 6.81251 2.7812L2.0729 9.8906C1.18683 11.2197 2.13961 13 3.73701 13H5L5 17C3.34315 17 2 18.3431 2 20C2 21.6569 3.34315 23 5 23H19C20.6569 23 22 21.6569 22 20C22 18.3431 20.6569 17 19 17V13ZM3.73701 11L8.47661 3.8906C8.84754 3.3342 9.472 3 10.1407 3H13.8592C14.5279 3 15.1524 3.3342 15.5233 3.8906L20.2629 11H3.73701ZM15 17V13H17V17H15ZM19 19C19.5523 19 20 19.4477 20 20C20 20.5523 19.5523 21 19 21H5C4.44772 21 4 20.5523 4 20C4 19.4477 4.44772 19 5 19H19ZM9 13V17H7V13H9ZM13 13H11V17H13V13Z" fill="currentColor"></path>
            </svg>