<svg class="w-8 h-8 mt-4" fill="none" stroke="currentColor" stroke-width="0.1" viewBox="0 0 24 24" width="24" height="24" xmlns="http://www.w3.org/2000/svg">
              <path fill-rule="evenodd" clip-rule="evenodd" d="M11 4C9.89543 4 9 4.89543 9 6V18C9 19.1046 9.89543 20 11 20H13C14.1046 20 15 19.1046 15 18V6C15 4.89543 14.1046 4 13 4H11ZM13 6H11V18H13V6Z" fill="currentColor"></path>
              <path fill-rule="evenodd" clip-rule="evenodd" d="M4 8C2.89543 8 2 8.89543 2 10V18C2 19.1046 2.89543 20 4 20H6C7.10457 20 8 19.1046 8 18V10C8 8.89543 7.10457 8 6 8H4ZM6 10H4L4 18H6V10Z" fill="currentColor"></path>
              <path fill-rule="evenodd" clip-rule="evenodd" d="M16 12C16 10.8954 16.8954 10 18 10H20C21.1046 10 22 10.8954 22 12V18C22 19.1046 21.1046 20 20 20H18C16.8954 20 16 19.1046 16 18V12ZM18 12H20V18H18V12Z" fill="currentColor"></path>
            </svg>